<svg width="32" height="25" viewBox="0 0 32 25" fill="none" xmlns="http://www.w3.org/2000/svg">
<path d="M24.9847 5.59064C24.9438 5.31468 24.8249 5.05845 24.6437 4.85591C24.4625 4.65338 24.2276 4.51411 23.9702 4.45658L20.8361 3.72511C20.5 3.64726 20.152 3.64697 19.8158 3.72425C19.4796 3.80153 19.1629 3.95459 18.8872 4.17306L9.62354 11.3404L7.02864 11.227C6.82004 11.219 6.61439 11.2811 6.4409 11.4044C6.26741 11.5276 6.1349 11.7058 6.0622 11.9136C5.98949 12.1214 5.98028 12.3482 6.03588 12.5619C6.09147 12.7755 6.20905 12.9652 6.3719 13.1038L9.04155 15.3323C9.36191 15.7462 9.57548 15.6668 14.8774 12.5992L15.374 17.9406C15.3822 18.0863 15.4293 18.2266 15.5096 18.345C15.5899 18.4634 15.7003 18.5552 15.8278 18.6097C15.9194 18.6487 16.0174 18.6679 16.1161 18.6664C16.3147 18.66 16.5044 18.5774 16.6501 18.4339L17.9261 17.1978C18.0532 17.0728 18.1393 16.9079 18.1718 16.7272L19.3411 9.97948C21.2472 8.84541 23.0519 7.77939 24.3386 7.00256C24.5689 6.86503 24.7541 6.65616 24.8695 6.40386C24.985 6.15156 25.0251 5.86785 24.9847 5.59064ZM23.8101 6.01592C22.4752 6.82111 20.6065 7.9495 18.5989 9.11759L18.38 9.24801L17.1359 16.4323L16.3511 17.1921L15.7637 10.7847L15.0536 11.1702C11.2253 13.4384 9.94923 14.0961 9.51141 14.3003L7.21551 12.3667L9.92788 12.4914L19.5386 5.08599C19.6895 4.96572 19.8627 4.8808 20.0468 4.83682C20.2309 4.79283 20.4216 4.79079 20.6065 4.83082L23.73 5.54528C23.7781 5.55455 23.8222 5.5799 23.8558 5.61764C23.8894 5.65538 23.9108 5.70353 23.9168 5.75508C23.9278 5.80498 23.9234 5.8573 23.9041 5.90429C23.8849 5.95128 23.8519 5.99043 23.8101 6.01592Z" fill="#42BDCC"/>
<path d="M9.57158 8.09832L11.6965 8.6665L12.6754 7.99037L10.2878 7.33128L11.3622 6.70628L14.6272 6.61537L16 5.6665L11.3622 5.80287C11.216 5.79534 11.0707 5.82893 10.9444 5.89946L9.37461 6.76878C9.24483 6.84196 9.14071 6.95008 9.07538 7.07951C9.01004 7.20893 8.98642 7.35387 9.00749 7.49605C9.02855 7.63824 9.09336 7.77131 9.19374 7.87848C9.29413 7.98566 9.4256 8.06216 9.57158 8.09832Z" fill="#42BDCC"/>
<rect x="7" y="20.6665" width="19" height="1.3" rx="0.65" fill="#42BDCC"/>
</svg>
