<svg width="20" height="24" viewBox="0 0 20 24" fill="none" xmlns="http://www.w3.org/2000/svg">
<g clip-path="url(#clip0_1223_7077)">
<path d="M18.8241 8.07467C17.2937 9.07 16.3484 10.7763 16.3484 12.6722C16.3484 14.805 17.5637 16.7483 19.4093 17.554C19.0492 18.7863 18.509 19.9239 17.8338 20.9666C16.8435 22.4359 15.8082 23.9526 14.2777 23.9526C12.7472 23.9526 12.2971 23.0046 10.4965 23.0046C8.741 23.0046 8.11081 24 6.67036 24C5.22991 24 4.23961 22.6255 3.11426 20.9192C1.6288 18.5493 0.77353 15.8003 0.728516 12.9091C0.728516 8.21686 3.60941 5.70483 6.4903 5.70483C8.02078 5.70483 9.28117 6.74756 10.2265 6.74756C11.1267 6.74756 12.5672 5.65743 14.2777 5.65743C16.0783 5.61004 17.7888 6.51058 18.8241 8.07467ZM13.4675 3.66677C14.2327 2.71884 14.6378 1.53392 14.6828 0.301604C14.6828 0.159414 14.6828 -0.0301731 14.6378 -0.172363C13.3324 -0.0301731 12.1171 0.633381 11.2618 1.67611C10.4965 2.57665 10.0464 3.71417 10.0014 4.94648C10.0014 5.08867 10.0014 5.23086 10.0464 5.37305C10.1364 5.37305 10.2715 5.42045 10.3615 5.42045C11.5769 5.32566 12.7022 4.6621 13.4675 3.66677Z" fill="#353535"/>
</g>
<defs>
<clipPath id="clip0_1223_7077">
<rect width="19" height="24" fill="white" transform="translate(0.5)"/>
</clipPath>
</defs>
</svg>
