<svg width="24" height="26" viewBox="0 0 24 26" fill="none" xmlns="http://www.w3.org/2000/svg">
<g clip-path="url(#clip0_1223_7057)">
<mask id="mask0_1223_7057" style="mask-type:luminance" maskUnits="userSpaceOnUse" x="0" y="0" width="24" height="26">
<path d="M23.7695 10.7281H12.2556V15.4358H18.8716C18.7652 16.1021 18.5264 16.7575 18.1767 17.3552C17.776 18.0399 17.2807 18.5612 16.7729 18.9582C15.2521 20.1474 13.479 20.3905 12.2476 20.3905C9.13691 20.3905 6.47903 18.339 5.45011 15.5514C5.40859 15.4502 5.38102 15.3457 5.34744 15.2424C5.12007 14.533 4.99584 13.7815 4.99584 13.0006C4.99584 12.1878 5.13037 11.4097 5.37566 10.6749C6.34319 7.77673 9.06099 5.61209 12.2498 5.61209C12.8912 5.61209 13.5089 5.68999 14.0946 5.84538C15.4333 6.2005 16.3801 6.8999 16.9603 7.45313L20.4613 3.95463C18.3317 1.9622 15.5555 0.754883 12.244 0.754883C9.59665 0.754825 7.1525 1.5965 5.1496 3.01895C3.52531 4.17252 2.19316 5.717 1.29412 7.51075C0.457891 9.17392 0 11.017 0 12.9987C0 14.9805 0.458591 16.8428 1.29483 18.4906V18.5017C2.1781 20.251 3.46975 21.7572 5.0396 22.9055C6.41104 23.9087 8.87017 25.2447 12.244 25.2447C14.1842 25.2447 15.9038 24.8877 17.4203 24.2188C18.5142 23.7362 19.4835 23.1068 20.3611 22.2979C21.5206 21.2291 22.4288 19.907 23.0486 18.386C23.6684 16.8649 24 15.1449 24 13.2801C24 12.4116 23.9145 11.5296 23.7695 10.728V10.7281Z" fill="white"/>
</mask>
<g mask="url(#mask0_1223_7057)">
<g filter="url(#filter0_f_1223_7057)">
<path d="M-0.177734 13.0815C-0.165008 15.032 0.379665 17.0445 1.20412 18.6691V18.6802C1.79983 19.86 2.61399 20.792 3.5413 21.7154L9.14205 19.6301C8.08242 19.0809 7.92073 18.7443 7.16115 18.1302C6.38493 17.3315 5.8064 16.4146 5.44612 15.3395H5.4316L5.44612 15.3283C5.20909 14.6184 5.18571 13.8647 5.17697 13.0815H-0.177734Z" fill="url(#paint0_radial_1223_7057)"/>
</g>
<g filter="url(#filter1_f_1223_7057)">
<path d="M12.2544 0.665527C11.7009 2.65001 11.9125 4.57899 12.2544 5.70136C12.8937 5.70184 13.5095 5.7796 14.0934 5.9345C15.432 6.28962 16.3788 6.98905 16.959 7.54227L20.5496 3.9544C18.4225 1.96433 15.8627 0.668663 12.2544 0.665527Z" fill="url(#paint1_radial_1223_7057)"/>
</g>
<g filter="url(#filter2_f_1223_7057)">
<path d="M12.2427 0.649902C9.52736 0.649842 7.02047 1.51312 4.96616 2.9721C4.20339 3.51381 3.50341 4.13959 2.88013 4.83546C2.71684 6.39859 4.10245 8.31982 6.84637 8.30392C8.17771 6.72367 10.1467 5.70125 12.3382 5.70125C12.3402 5.70125 12.3422 5.70142 12.3442 5.70143L12.2547 0.65026C12.2506 0.650257 12.2467 0.649902 12.2427 0.649902Z" fill="url(#paint2_radial_1223_7057)"/>
</g>
<g filter="url(#filter3_f_1223_7057)">
<path d="M21.2056 13.6472L18.782 15.3462C18.6756 16.0124 18.4367 16.6678 18.087 17.2655C17.6863 17.9502 17.191 18.4715 16.6833 18.8685C15.1656 20.0552 13.3971 20.2996 12.1661 20.3006C10.8936 22.512 10.6705 23.6197 12.2556 25.4045C14.2169 25.403 15.9556 25.0418 17.4893 24.3653C18.598 23.8762 19.5802 23.2384 20.4696 22.4186C21.6447 21.3354 22.5651 19.9956 23.1933 18.4541C23.8214 16.9127 24.1573 15.1696 24.1573 13.2798L21.2056 13.6472Z" fill="url(#paint3_radial_1223_7057)"/>
</g>
<g filter="url(#filter4_f_1223_7057)">
<path d="M12.0762 10.5488V15.6143H23.7367C23.8393 14.9206 24.1785 14.0229 24.1785 13.2797C24.1785 12.4112 24.093 11.3504 23.9481 10.5488H12.0762Z" fill="#3086FF"/>
</g>
<g filter="url(#filter5_f_1223_7057)">
<path d="M2.93614 4.65674C2.21656 5.46012 1.60182 6.35933 1.1144 7.33182C0.278183 8.99499 -0.179688 11.0169 -0.179688 12.9986C-0.179688 13.0266 -0.177422 13.0539 -0.17724 13.0818C0.193097 13.8063 4.93829 13.6676 5.17746 13.0818C5.17716 13.0544 5.17415 13.0278 5.17415 13.0004C5.17415 12.1876 5.30872 11.5885 5.55401 10.8537C5.8566 9.94726 6.3304 9.11258 6.93626 8.39344C7.0736 8.21452 7.43994 7.82988 7.54681 7.59917C7.58753 7.51129 7.4729 7.46197 7.46649 7.43103C7.45932 7.39644 7.30563 7.42426 7.2712 7.39849C7.16188 7.31667 6.94539 7.27394 6.81394 7.23596C6.53297 7.15478 6.06731 6.97575 5.80867 6.79017C4.99113 6.20356 3.71527 5.50286 2.93614 4.65674Z" fill="url(#paint4_radial_1223_7057)"/>
</g>
<g filter="url(#filter6_f_1223_7057)">
<path d="M5.8262 7.43427C7.72201 8.6061 8.26721 6.84278 9.52766 6.29101L7.33507 1.65137C6.52851 1.99728 5.76648 2.42704 5.05943 2.92919C4.00351 3.6791 3.07105 4.59421 2.30078 5.63561L5.8262 7.43427Z" fill="url(#paint5_radial_1223_7057)"/>
</g>
<g filter="url(#filter7_f_1223_7057)">
<path d="M6.59746 19.2719C4.05259 20.2093 3.65418 20.243 3.41992 21.8523C3.86757 22.298 4.34854 22.7104 4.85964 23.0842C6.23108 24.0874 8.86914 25.4234 12.243 25.4234C12.2469 25.4234 12.2507 25.423 12.2547 25.423V20.2113C12.2521 20.2114 12.2492 20.2115 12.2467 20.2115C10.9833 20.2115 9.9737 19.8729 8.93857 19.2841C8.68335 19.1389 8.22032 19.5287 7.98494 19.3545C7.66031 19.1141 6.87903 19.5616 6.59746 19.2719Z" fill="url(#paint6_radial_1223_7057)"/>
</g>
<g opacity="0.5" filter="url(#filter8_f_1223_7057)">
<path d="M10.7656 20.0469V25.3324C11.2377 25.3888 11.729 25.4231 12.2443 25.4231C12.761 25.4231 13.2608 25.396 13.7464 25.3462V20.0825C13.2022 20.1774 12.6896 20.2112 12.248 20.2112C11.7394 20.2112 11.2448 20.1508 10.7656 20.0469Z" fill="url(#paint7_linear_1223_7057)"/>
</g>
</g>
</g>
<defs>
<filter id="filter0_f_1223_7057" x="-0.647814" y="12.6115" width="10.2605" height="9.57395" filterUnits="userSpaceOnUse" color-interpolation-filters="sRGB">
<feFlood flood-opacity="0" result="BackgroundImageFix"/>
<feBlend mode="normal" in="SourceGraphic" in2="BackgroundImageFix" result="shape"/>
<feGaussianBlur stdDeviation="0.23504" result="effect1_foregroundBlur_1223_7057"/>
</filter>
<filter id="filter1_f_1223_7057" x="11.444" y="0.195448" width="9.57492" height="7.81711" filterUnits="userSpaceOnUse" color-interpolation-filters="sRGB">
<feFlood flood-opacity="0" result="BackgroundImageFix"/>
<feBlend mode="normal" in="SourceGraphic" in2="BackgroundImageFix" result="shape"/>
<feGaussianBlur stdDeviation="0.23504" result="effect1_foregroundBlur_1223_7057"/>
</filter>
<filter id="filter2_f_1223_7057" x="2.39711" y="0.179823" width="10.4167" height="8.59446" filterUnits="userSpaceOnUse" color-interpolation-filters="sRGB">
<feFlood flood-opacity="0" result="BackgroundImageFix"/>
<feBlend mode="normal" in="SourceGraphic" in2="BackgroundImageFix" result="shape"/>
<feGaussianBlur stdDeviation="0.23504" result="effect1_foregroundBlur_1223_7057"/>
</filter>
<filter id="filter3_f_1223_7057" x="10.6686" y="12.8097" width="13.9597" height="13.0647" filterUnits="userSpaceOnUse" color-interpolation-filters="sRGB">
<feFlood flood-opacity="0" result="BackgroundImageFix"/>
<feBlend mode="normal" in="SourceGraphic" in2="BackgroundImageFix" result="shape"/>
<feGaussianBlur stdDeviation="0.23504" result="effect1_foregroundBlur_1223_7057"/>
</filter>
<filter id="filter4_f_1223_7057" x="11.6061" y="10.0787" width="13.0417" height="6.00559" filterUnits="userSpaceOnUse" color-interpolation-filters="sRGB">
<feFlood flood-opacity="0" result="BackgroundImageFix"/>
<feBlend mode="normal" in="SourceGraphic" in2="BackgroundImageFix" result="shape"/>
<feGaussianBlur stdDeviation="0.23504" result="effect1_foregroundBlur_1223_7057"/>
</filter>
<filter id="filter5_f_1223_7057" x="-0.649767" y="4.18666" width="8.67453" height="9.85813" filterUnits="userSpaceOnUse" color-interpolation-filters="sRGB">
<feFlood flood-opacity="0" result="BackgroundImageFix"/>
<feBlend mode="normal" in="SourceGraphic" in2="BackgroundImageFix" result="shape"/>
<feGaussianBlur stdDeviation="0.23504" result="effect1_foregroundBlur_1223_7057"/>
</filter>
<filter id="filter6_f_1223_7057" x="-1.00407" y="-1.65348" width="13.8363" height="12.7865" filterUnits="userSpaceOnUse" color-interpolation-filters="sRGB">
<feFlood flood-opacity="0" result="BackgroundImageFix"/>
<feBlend mode="normal" in="SourceGraphic" in2="BackgroundImageFix" result="shape"/>
<feGaussianBlur stdDeviation="1.65243" result="effect1_foregroundBlur_1223_7057"/>
</filter>
<filter id="filter7_f_1223_7057" x="2.94984" y="18.7809" width="9.77414" height="7.11252" filterUnits="userSpaceOnUse" color-interpolation-filters="sRGB">
<feFlood flood-opacity="0" result="BackgroundImageFix"/>
<feBlend mode="normal" in="SourceGraphic" in2="BackgroundImageFix" result="shape"/>
<feGaussianBlur stdDeviation="0.23504" result="effect1_foregroundBlur_1223_7057"/>
</filter>
<filter id="filter8_f_1223_7057" x="10.2955" y="19.5768" width="3.92063" height="6.31614" filterUnits="userSpaceOnUse" color-interpolation-filters="sRGB">
<feFlood flood-opacity="0" result="BackgroundImageFix"/>
<feBlend mode="normal" in="SourceGraphic" in2="BackgroundImageFix" result="shape"/>
<feGaussianBlur stdDeviation="0.23504" result="effect1_foregroundBlur_1223_7057"/>
</filter>
<radialGradient id="paint0_radial_1223_7057" cx="0" cy="0" r="1" gradientTransform="matrix(-0.498722 -12.1958 17.9311 -0.731861 9.02993 21.5316)" gradientUnits="userSpaceOnUse">
<stop offset="0.141612" stop-color="#1ABD4D"/>
<stop offset="0.247515" stop-color="#6EC30D"/>
<stop offset="0.311547" stop-color="#8AC502"/>
<stop offset="0.366013" stop-color="#A2C600"/>
<stop offset="0.445673" stop-color="#C8C903"/>
<stop offset="0.540305" stop-color="#EBCB03"/>
<stop offset="0.615636" stop-color="#F7CD07"/>
<stop offset="0.699345" stop-color="#FDCD04"/>
<stop offset="0.771242" stop-color="#FDCE05"/>
<stop offset="0.860566" stop-color="#FFCE0A"/>
</radialGradient>
<radialGradient id="paint1_radial_1223_7057" cx="0" cy="0" r="1" gradientTransform="matrix(8.46967 -2.07711e-05 -1.19045e-05 10.9278 20.2137 7.28267)" gradientUnits="userSpaceOnUse">
<stop offset="0.408458" stop-color="#FB4E5A"/>
<stop offset="1" stop-color="#FF4540"/>
</radialGradient>
<radialGradient id="paint2_radial_1223_7057" cx="0" cy="0" r="1" gradientTransform="matrix(-11.8666 6.56624 8.91875 16.0877 15.5886 -0.931937)" gradientUnits="userSpaceOnUse">
<stop offset="0.231273" stop-color="#FF4541"/>
<stop offset="0.311547" stop-color="#FF4540"/>
<stop offset="0.457516" stop-color="#FF4640"/>
<stop offset="0.540305" stop-color="#FF473F"/>
<stop offset="0.699346" stop-color="#FF5138"/>
<stop offset="0.771242" stop-color="#FF5B33"/>
<stop offset="0.860566" stop-color="#FF6C29"/>
<stop offset="1" stop-color="#FF8C18"/>
</radialGradient>
<radialGradient id="paint3_radial_1223_7057" cx="0" cy="0" r="1" gradientTransform="matrix(-21.5204 -28.066 -10.3696 7.93625 12.432 23.8195)" gradientUnits="userSpaceOnUse">
<stop offset="0.131546" stop-color="#0CBA65"/>
<stop offset="0.209784" stop-color="#0BB86D"/>
<stop offset="0.297297" stop-color="#09B479"/>
<stop offset="0.396257" stop-color="#08AD93"/>
<stop offset="0.477124" stop-color="#0AA6A9"/>
<stop offset="0.568425" stop-color="#0D9CC6"/>
<stop offset="0.667385" stop-color="#1893DD"/>
<stop offset="0.768727" stop-color="#258BF1"/>
<stop offset="0.858506" stop-color="#3086FF"/>
</radialGradient>
<radialGradient id="paint4_radial_1223_7057" cx="0" cy="0" r="1" gradientTransform="matrix(-1.52295 13.1145 18.1501 2.10376 11.2034 2.96299)" gradientUnits="userSpaceOnUse">
<stop offset="0.366013" stop-color="#FF4E3A"/>
<stop offset="0.457516" stop-color="#FF8A1B"/>
<stop offset="0.540305" stop-color="#FFA312"/>
<stop offset="0.615636" stop-color="#FFB60C"/>
<stop offset="0.771242" stop-color="#FFCD0A"/>
<stop offset="0.860566" stop-color="#FECF0A"/>
<stop offset="0.915033" stop-color="#FECF08"/>
<stop offset="1" stop-color="#FDCD01"/>
</radialGradient>
<radialGradient id="paint5_radial_1223_7057" cx="0" cy="0" r="1" gradientTransform="matrix(-4.40212 4.86406 -13.7322 -12.4047 9.06171 2.82673)" gradientUnits="userSpaceOnUse">
<stop offset="0.315904" stop-color="#FF4C3C"/>
<stop offset="0.603818" stop-color="#FF692C"/>
<stop offset="0.726837" stop-color="#FF7825"/>
<stop offset="0.884534" stop-color="#FF8D1B"/>
<stop offset="1" stop-color="#FF9F13"/>
</radialGradient>
<radialGradient id="paint6_radial_1223_7057" cx="0" cy="0" r="1" gradientTransform="matrix(-11.8666 -6.56624 8.91876 -16.0877 15.5886 26.9308)" gradientUnits="userSpaceOnUse">
<stop offset="0.231273" stop-color="#0FBC5F"/>
<stop offset="0.311547" stop-color="#0FBC5F"/>
<stop offset="0.366013" stop-color="#0FBC5E"/>
<stop offset="0.457516" stop-color="#0FBC5D"/>
<stop offset="0.540305" stop-color="#12BC58"/>
<stop offset="0.699346" stop-color="#28BF3C"/>
<stop offset="0.771242" stop-color="#38C02B"/>
<stop offset="0.860566" stop-color="#52C218"/>
<stop offset="0.915033" stop-color="#67C30F"/>
<stop offset="1" stop-color="#86C504"/>
</radialGradient>
<linearGradient id="paint7_linear_1223_7057" x1="10.7656" y1="22.735" x2="13.7464" y2="22.735" gradientUnits="userSpaceOnUse">
<stop stop-color="#0FBC5C"/>
<stop offset="1" stop-color="#0CBA65"/>
</linearGradient>
<clipPath id="clip0_1223_7057">
<rect width="24" height="24.4898" fill="white" transform="translate(0 0.754883)"/>
</clipPath>
</defs>
</svg>
