<svg width="20" height="22" viewBox="0 0 20 22" fill="none" xmlns="http://www.w3.org/2000/svg">
<path d="M15.8834 16.2391C15.6542 15.9655 15.5161 15.6292 15.4861 15.2753C15.456 14.9214 15.5363 14.5669 15.7162 14.2595C15.896 13.952 16.1668 13.7064 16.4922 13.5555C16.8175 13.4046 17.1818 13.3558 17.5361 13.4155M15.8834 16.2391C16.0644 16.4551 16.2965 16.6246 16.5582 16.7333C16.8199 16.8419 17.1043 16.8864 17.3871 16.863C17.67 16.8395 17.9429 16.7488 18.1826 16.5986C18.4223 16.4484 18.6217 16.2431 18.7637 16.0003C18.9058 15.7575 18.9863 15.4843 18.9984 15.2041C19.0105 14.9239 18.9538 14.6449 18.8333 14.391C18.7127 14.1371 18.5317 13.9158 18.3059 13.7459C18.08 13.5761 17.8159 13.4627 17.5361 13.4155M15.8834 16.2391C15.5216 16.6363 15.1202 16.995 14.6861 17.3101M4.11571 16.2391C3.93469 16.4551 3.70347 16.6246 3.44179 16.7333C3.18011 16.8419 2.89572 16.8864 2.61287 16.863C2.33002 16.8395 2.05711 16.7488 1.81741 16.5986C1.57771 16.4484 1.37833 16.2431 1.23628 16.0003C1.09423 15.7575 1.01371 15.4843 1.0016 15.2041C0.989494 14.9239 1.04615 14.6449 1.16674 14.391C1.28733 14.1371 1.46827 13.9158 1.69414 13.7459C1.92001 13.5761 2.18411 13.4627 2.4639 13.4155M4.11571 16.2391C4.34491 15.9655 4.48388 15.6292 4.51394 15.2753C4.54399 14.9214 4.46369 14.5669 4.28382 14.2595C4.10396 13.952 3.83315 13.7064 3.50781 13.5555C3.18246 13.4046 2.81817 13.3558 2.4639 13.4155M4.11571 16.2391C4.47749 16.6363 4.87868 16.995 5.31255 17.3101M4.27939 21C4.27939 21 8.78688 21 9.2929 12.5938M15.7197 21C15.7197 21 11.2122 21 10.7053 12.5938M2.4639 13.4155C2.2084 12.6352 2.07863 11.82 2.07933 10.9998C2.07933 10.1563 2.21397 9.34503 2.4639 8.58414M2.4639 8.58414C2.55953 8.5998 2.65809 8.60791 2.75959 8.60849C3.09353 8.60834 3.42053 8.51433 3.70242 8.33742C3.98431 8.16051 4.20944 7.90801 4.35154 7.6094C4.49364 7.31079 4.54684 6.9784 4.50493 6.65104C4.46301 6.32367 4.32771 6.01485 4.11483 5.76062M2.4639 8.58414C2.18411 8.53695 1.92089 8.42359 1.69502 8.25374C1.46915 8.08388 1.28821 7.86256 1.16762 7.60866C1.04703 7.35476 0.990374 7.07581 1.00248 6.79559C1.01459 6.51537 1.09511 6.24221 1.23716 5.99939C1.37921 5.75657 1.57859 5.5513 1.81829 5.40108C2.05799 5.25087 2.3309 5.16017 2.61375 5.13671C2.8966 5.11326 3.18099 5.15775 3.44267 5.26639C3.70435 5.37502 3.93557 5.54459 4.11659 5.76062C5.23426 4.53389 6.71585 3.68775 8.34951 3.34319M8.34951 3.34319C8.4742 3.6766 8.69929 3.96426 8.99446 4.16742C9.28964 4.37058 9.64072 4.47949 10.0004 4.47949C10.3602 4.47949 10.7112 4.37058 11.0064 4.16742C11.3016 3.96426 11.5267 3.6766 11.6514 3.34319M8.34951 3.34319C8.25095 3.08023 8.2182 2.79761 8.25405 2.51944C8.2899 2.24127 8.39329 1.97579 8.55541 1.74564C8.71753 1.51548 8.93356 1.32747 9.1851 1.19764C9.43664 1.06781 9.71621 1 10 1C10.2838 1 10.5634 1.06781 10.8149 1.19764C11.0664 1.32747 11.2825 1.51548 11.4446 1.74564C11.6067 1.97579 11.7101 2.24127 11.7459 2.51944C11.7818 2.79761 11.7499 3.08023 11.6514 3.34319M11.6514 3.34319C13.2853 3.68758 14.7664 4.53373 15.8843 5.76062M15.8843 5.76062C16.0653 5.54459 16.2965 5.37502 16.5582 5.26639C16.8199 5.15775 17.1043 5.11326 17.3871 5.13671C17.67 5.16017 17.9429 5.25087 18.1826 5.40108C18.4223 5.5513 18.6217 5.75657 18.7637 5.99939C18.9058 6.24221 18.9863 6.51537 18.9984 6.79559C19.0105 7.07581 18.9538 7.35476 18.8333 7.60866C18.7127 7.86256 18.5317 8.08388 18.3059 8.25374C18.08 8.42359 17.8159 8.53695 17.5361 8.58414M15.8843 5.76062C15.6551 6.03415 15.5161 6.37046 15.4861 6.72435C15.456 7.07823 15.5363 7.43272 15.7162 7.74018C15.896 8.04763 16.1668 8.29331 16.4922 8.44418C16.8175 8.59506 17.1818 8.6439 17.5361 8.58414M17.5361 8.58414C17.786 9.34503 17.9207 10.1572 17.9207 10.9998C17.9207 11.8425 17.786 12.6546 17.5361 13.4155M9.29378 12.5938C9.51645 12.6902 9.7569 12.7399 10 12.7399C10.2431 12.7399 10.4836 12.6902 10.7062 12.5938C11.0764 12.4335 11.3795 12.1523 11.5646 11.7973C11.7497 11.4423 11.8055 11.0351 11.7227 10.6443C11.6398 10.2534 11.4234 9.90261 11.1097 9.65082C10.796 9.39904 10.4041 9.2616 10 9.2616C9.59585 9.2616 9.20401 9.39904 8.89031 9.65082C8.57661 9.90261 8.36016 10.2534 8.27732 10.6443C8.19448 11.0351 8.2503 11.4423 8.43539 11.7973C8.62049 12.1523 8.92359 12.4335 9.29378 12.5938Z" stroke="#42BDCC" stroke-width="1.3" stroke-linecap="round" stroke-linejoin="round"/>
</svg>
